/vscmnt/brussel_pixiu_data/_data_brussel/112/vsc11236/PredSimResults/SUBJ06opt3D/trackIG/worker_12.mot
version=1
nRows=8
nColumns=50
inDegrees=yes
endheader
                time	         pelvis_tilt	         pelvis_list	     pelvis_rotation	           pelvis_tx	           pelvis_ty	           pelvis_tz	       hip_flexion_r	     hip_adduction_r	      hip_rotation_r	        knee_angle_r	       ankle_angle_r	         mtp_angle_r	       hip_flexion_l	     hip_adduction_l	      hip_rotation_l	        knee_angle_l	       ankle_angle_l	         mtp_angle_l	    lumbar_extension	      lumbar_bending	     lumbar_rotation	 ercspn_r/activation	 intobl_r/activation	 extobl_r/activation	    abd_r/activation	    add_r/activation	hamstrings_r/activation	bifemsh_r/activation	glut_max_r/activation	iliopsoas_r/activation	rect_fem_r/activation	  vasti_r/activation	gastroc_r/activation	 soleus_r/activation	tib_ant_r/activation	 ercspn_l/activation	 intobl_l/activation	 extobl_l/activation	    abd_l/activation	    add_l/activation	hamstrings_l/activation	bifemsh_l/activation	glut_max_l/activation	iliopsoas_l/activation	rect_fem_l/activation	  vasti_l/activation	gastroc_l/activation	 soleus_l/activation	tib_ant_l/activation	
          0.48969659	         -8.20231646	          2.89323404	         -9.43119084	          0.83248421	          0.91490967	          0.00821918	        -12.90074852	         -3.92325748	         -1.56691776	        -12.14805627	          0.55881591	         44.37909957	         36.14249979	         -1.37138489	        -10.04639695	         -8.39686038	          2.43956484	          0.31927072	        -11.24575683	         -2.90913244	          9.03223332	          0.23412767	          0.00999999	          0.00999999	          0.02230970	          0.37422265	          0.06085257	          0.41342775	          0.01830903	          0.59517300	          0.02477412	          0.02129765	          0.34842634	          0.24958775	          0.01341677	          0.20658750	          0.12343757	          0.00999999	          0.00999999	          0.57849155	          0.18058328	          0.19870524	          0.19959260	          0.16637173	          0.00999999	          0.00999999	          0.01573979	          0.01052021	          0.79919483	
          0.49949052	         -8.12685286	          2.85561319	         -9.44239394	          0.85316790	          0.91244255	          0.00759936	        -13.64801386	         -4.12421757	         -1.98411407	        -13.01079533	         -1.10294541	         45.94034702	         36.33937655	         -1.30940188	         -9.88592197	        -11.05519131	          1.87401841	          0.24679168	        -10.87473560	         -3.09002345	          9.46932445	          0.22219898	          0.00999999	          0.00999999	          0.01917906	          0.36633490	          0.05465524	          0.37794790	          0.01573979	          0.74236397	          0.02129766	          0.01830903	          0.29953292	          0.21456400	          0.01153404	          0.17759781	          0.10611602	          0.00999999	          0.10817030	          0.53262487	          0.16676182	          0.17082165	          0.27678830	          0.14302538	          0.00999999	          0.00999999	          0.01353108	          0.01163231	          0.87851554	
          0.50928446	         -8.04014216	          2.84204916	         -9.40975599	          0.87376085	          0.91013054	          0.00687766	        -13.97364197	         -4.36231287	         -2.40653902	        -14.64579572	         -2.67979284	         47.20241890	         36.44268709	         -1.23234261	         -9.67459618	        -13.64832677	          1.55402925	          0.21284853	        -10.53187435	         -3.29422262	          9.84117097	          0.24072683	          0.00999999	          0.00999999	          0.01648773	          0.31492844	          0.04698567	          0.32491183	          0.01353108	          0.84198410	          0.01830903	          0.01573979	          0.25750054	          0.18445500	          0.00999999	          0.18329665	          0.09122514	          0.00999999	          0.19466689	          0.56538669	          0.14336073	          0.14685086	          0.40594782	          0.12295514	          0.00999999	          0.00999999	          0.01163231	          0.00999999	          0.92650352	
          0.51907839	         -7.94339347	          2.84151069	         -9.33365845	          0.89401249	          0.90815839	          0.00602378	        -13.81007091	         -4.63653461	         -2.82548645	        -17.14633042	         -4.11085235	         47.84507555	         36.56136019	         -1.12107435	         -9.48176648	        -16.21591839	          1.12547869	          0.16276001	        -10.24934692	         -3.50833036	         10.14550939	          0.30632456	          0.00999999	          0.00999999	          0.01417406	          0.27073566	          0.04039234	          0.27931812	          0.01163231	          0.72383149	          0.01573979	          0.01353108	          0.22136642	          0.15857109	          0.00999999	          0.22461217	          0.07842384	          0.00999999	          0.26198585	          0.54503975	          0.12324343	          0.12624381	          0.58965299	          0.10570129	          0.00999999	          0.04355194	          0.00999999	          0.00999999	          0.95553561	
          0.52887232	         -7.83769391	          2.85705052	         -9.21238602	          0.91380591	          0.90670539	          0.00506380	        -13.15795355	         -4.95615250	         -3.23794586	        -20.45754541	         -5.53248463	         47.77605208	         36.74770539	         -0.97946468	         -9.28859846	        -18.94450908	          1.19563041	          0.08338122	        -10.03348325	         -3.73789700	         10.37329687	          0.36633511	          0.00999999	          0.00999999	          0.01218507	          0.23427772	          0.03472423	          0.24012241	          0.00999999	          0.62225882	          0.01353108	          0.01163231	          0.19030286	          0.13631938	          0.00999999	          0.21689406	          0.06741891	          0.00999999	          0.32063804	          0.54003434	          0.10614862	          0.10852847	          0.51439966	          0.09086861	          0.00999999	          0.18012023	          0.00999999	          0.00999999	          0.92775846	
          0.53866625	         -7.72983299	          2.88790734	         -9.04799862	          0.93312002	          0.90593768	          0.00401499	        -12.05607286	         -5.32347082	         -3.63880329	        -24.40953502	         -7.19203653	         47.01013352	         36.87479995	         -0.78000031	         -9.05621735	        -21.61018958	          1.90292303	          0.03956533	         -9.87525885	         -3.97765789	         10.52656197	          0.40574392	          0.00999999	          0.00999999	          0.01047518	          0.27564133	          0.02985150	          0.20642689	          0.00999999	          0.53493947	          0.01163231	          0.00999999	          0.16359835	          0.11719017	          0.00999999	          0.18645809	          0.05795825	          0.00999999	          0.37226222	          0.51769982	          0.09495692	          0.09329906	          0.44221580	          0.07811734	          0.00999999	          0.35386622	          0.00999999	          0.00999999	          0.79756945	
          0.54846018	         -7.63001893	          2.91329494	         -8.83954986	          0.95190833	          0.90602581	          0.00290427	        -10.54535695	         -5.71355199	         -4.02028495	        -28.83396617	         -9.15948269	         45.29089811	         36.75860060	         -0.51847494	         -8.79212195	        -23.86781928	          3.22754007	          0.16247425	         -9.77303187	         -4.20074555	         10.61130307	          0.39866278	          0.00999999	          0.00999999	          0.00999999	          0.29488102	          0.02566255	          0.17745975	          0.00999999	          0.45987334	          0.00999999	          0.00999999	          0.14064118	          0.10074530	          0.07594140	          0.16029310	          0.04982518	          0.00999999	          0.41428448	          0.45914576	          0.09042252	          0.08020674	          0.38016125	          0.06715541	          0.00999999	          0.44448490	          0.00999999	          0.00999999	          0.68564939	
          0.55825411	         -7.54693776	          2.92771221	         -8.59102325	          0.97007075	          0.90702099	          0.00177176	         -8.67636469	         -6.11286895	         -4.35239895	        -33.61395099	        -11.08930348	         42.06066144	         36.33768850	         -0.20020590	         -8.49911958	        -25.52618356	          4.78981447	          0.51251808	         -9.73129435	         -4.40257030	         10.63266055	          0.39311064	          0.03240048	          0.00999999	          0.00999999	          0.25350142	          0.02206142	          0.15255746	          0.01353107	          0.39534096	          0.00999999	          0.00999999	          0.12090551	          0.08660807	          0.28762018	          0.13779974	          0.04283339	          0.00999999	          0.42134884	          0.39471549	          0.09902951	          0.06895161	          0.32681458	          0.05773174	          0.00999999	          0.48689017	          0.00999999	          0.00999999	          0.58943468	
